<svg xmlns="http://www.w3.org/2000/svg" viewBox="-100 -120 6958 2000" preserveAspectRatio="xMidYMid meet">
<g fill="#0E0E0C" fill-rule="evenodd">
<path transform="translate(0,0)" d="M30 1760 L195 110 L350 0 H797 L964 1760 H631 L606 1476 H394 L372 1760 Z M419 1195 H579 L502 300 H486 Z"/>
<path transform="translate(1194,0)" d="M78 1760V0H440L602 843V0H942V1760H598L422 880V1760Z"/>
<path transform="translate(2414,0)" d="M291 1760V1181L10 0H359L457 596L555 0H903L623 1181V1760Z"/>
<path transform="translate(3528,0)" d="M78 1760V0H428V629H594V0H944V1760H594V962H428V1760Z"/>
<path transform="translate(4750,0)" d="M78 1760V0H430V1460H792V1760Z"/>
<path transform="translate(5764,0)" d="M30 1760 200 0H797L964 1760H631L606 1476H394L372 1760ZM419 1195H579L502 300H486Z"/>
</g></svg>